<?xml version="1.0" encoding="UTF-8" standalone="no"?>
<!DOCTYPE svg PUBLIC "-//W3C//DTD SVG 1.1//EN"
 "http://www.w3.org/Graphics/SVG/1.1/DTD/svg11.dtd">
<!-- Generated by graphviz version 2.40.1 (20161225.0304)
 -->
<!-- Title: dependencies Pages: 1 -->
<svg width="6785pt" height="284pt"
 viewBox="0.00 0.00 6785.00 284.00" xmlns="http://www.w3.org/2000/svg" xmlns:xlink="http://www.w3.org/1999/xlink">
<g id="graph0" class="graph" transform="scale(1 1) rotate(0) translate(4 280)">
<title>dependencies</title>
<polygon fill="#ffffff" stroke="transparent" points="-4,4 -4,-280 6781,-280 6781,4 -4,4"/>
<text text-anchor="start" x="3367.5091" y="-42.4" font-family="sans-serif" font-weight="bold" font-size="14.00" fill="#000000">Legend</text>
<polygon fill="#ffffb3" stroke="transparent" points="3154.5,-10 3154.5,-30 3174.5,-30 3174.5,-10 3154.5,-10"/>
<text text-anchor="start" x="3178.129" y="-15.4" font-family="sans-serif" font-size="14.00" fill="#000000"> &#160;Declarations</text>
<polygon fill="#8dd3c7" stroke="transparent" points="3267.5,-10 3267.5,-30 3287.5,-30 3287.5,-10 3267.5,-10"/>
<text text-anchor="start" x="3291.2251" y="-15.4" font-family="sans-serif" font-size="14.00" fill="#000000"> &#160;Module</text>
<polygon fill="#80b1d3" stroke="transparent" points="3353.5,-10 3353.5,-30 3373.5,-30 3373.5,-10 3353.5,-10"/>
<text text-anchor="start" x="3377.2812" y="-15.4" font-family="sans-serif" font-size="14.00" fill="#000000"> &#160;Bootstrap</text>
<polygon fill="#fdb462" stroke="transparent" points="3450.5,-10 3450.5,-30 3470.5,-30 3470.5,-10 3450.5,-10"/>
<text text-anchor="start" x="3474.1732" y="-15.4" font-family="sans-serif" font-size="14.00" fill="#000000"> &#160;Providers</text>
<polygon fill="#fb8072" stroke="transparent" points="3546.5,-10 3546.5,-30 3566.5,-30 3566.5,-10 3546.5,-10"/>
<text text-anchor="start" x="3570.2258" y="-15.4" font-family="sans-serif" font-size="14.00" fill="#000000"> &#160;Exports</text>
<g id="clust1" class="cluster">
<title>cluster_AppModule</title>
<polygon fill="none" stroke="#000000" stroke-dasharray="1,5" points="8,-70 8,-268 6769,-268 6769,-70 8,-70"/>
</g>
<g id="clust2" class="cluster">
<title>cluster_AppModule_declarations</title>
<polygon fill="none" stroke="#000000" points="1752,-78 1752,-130 6761,-130 6761,-78 1752,-78"/>
</g>
<g id="clust26" class="cluster">
<title>cluster_AppModule_imports</title>
<polygon fill="none" stroke="#000000" points="1600,-78 1600,-130 1744,-130 1744,-78 1600,-78"/>
</g>
<g id="clust28" class="cluster">
<title>cluster_AppModule_bootstrap</title>
<polygon fill="none" stroke="#000000" points="3589,-208 3589,-260 3713,-260 3713,-208 3589,-208"/>
</g>
<g id="clust29" class="cluster">
<title>cluster_AppModule_providers</title>
<polygon fill="none" stroke="#000000" points="16,-78 16,-130 1592,-130 1592,-78 16,-78"/>
</g>
<!-- AdministratorManagementComponent -->
<g id="node1" class="node">
<title>AdministratorManagementComponent</title>
<polygon fill="#ffffb3" stroke="#000000" points="6753.4566,-122 6520.5434,-122 6520.5434,-86 6753.4566,-86 6753.4566,-122"/>
<text text-anchor="middle" x="6637" y="-99.8" font-family="Times,serif" font-size="14.00" fill="#000000">AdministratorManagementComponent</text>
</g>
<!-- AppModule -->
<g id="node24" class="node">
<title>AppModule</title>
<polygon fill="#8dd3c7" stroke="#000000" points="3692.6571,-187 3689.6571,-191 3668.6571,-191 3665.6571,-187 3609.3429,-187 3609.3429,-151 3692.6571,-151 3692.6571,-187"/>
<text text-anchor="middle" x="3651" y="-164.8" font-family="Times,serif" font-size="14.00" fill="#000000">AppModule</text>
</g>
<!-- AdministratorManagementComponent&#45;&gt;AppModule -->
<g id="edge1" class="edge">
<title>AdministratorManagementComponent&#45;&gt;AppModule</title>
<path fill="none" stroke="#000000" d="M6637,-122.3802C6637,-146.2785 6637,-185 6637,-185 6637,-185 3702.9256,-185 3702.9256,-185"/>
<polygon fill="#000000" stroke="#000000" points="3702.9256,-181.5001 3692.9256,-185 3702.9255,-188.5001 3702.9256,-181.5001"/>
</g>
<!-- AppComponent -->
<g id="node2" class="node">
<title>AppComponent</title>
<polygon fill="#ffffb3" stroke="#000000" points="6502.9399,-122 6397.0601,-122 6397.0601,-86 6502.9399,-86 6502.9399,-122"/>
<text text-anchor="middle" x="6450" y="-99.8" font-family="Times,serif" font-size="14.00" fill="#000000">AppComponent</text>
</g>
<!-- AppComponent&#45;&gt;AppModule -->
<g id="edge2" class="edge">
<title>AppComponent&#45;&gt;AppModule</title>
<path fill="none" stroke="#000000" d="M6450,-122.3228C6450,-145.6602 6450,-183 6450,-183 6450,-183 3702.7392,-183 3702.7392,-183"/>
<polygon fill="#000000" stroke="#000000" points="3702.7392,-179.5001 3692.7392,-183 3702.7391,-186.5001 3702.7392,-179.5001"/>
</g>
<!-- AuthenticatedUserAccessesComponent -->
<g id="node3" class="node">
<title>AuthenticatedUserAccessesComponent</title>
<polygon fill="#ffffb3" stroke="#000000" points="6378.5854,-122 6141.4146,-122 6141.4146,-86 6378.5854,-86 6378.5854,-122"/>
<text text-anchor="middle" x="6260" y="-99.8" font-family="Times,serif" font-size="14.00" fill="#000000">AuthenticatedUserAccessesComponent</text>
</g>
<!-- AuthenticatedUserAccessesComponent&#45;&gt;AppModule -->
<g id="edge3" class="edge">
<title>AuthenticatedUserAccessesComponent&#45;&gt;AppModule</title>
<path fill="none" stroke="#000000" d="M6260,-122.0109C6260,-144.4852 6260,-180 6260,-180 6260,-180 3702.7725,-180 3702.7725,-180"/>
<polygon fill="#000000" stroke="#000000" points="3702.7726,-176.5001 3692.7725,-180 3702.7725,-183.5001 3702.7726,-176.5001"/>
</g>
<!-- BindAdministratorComponent -->
<g id="node4" class="node">
<title>BindAdministratorComponent</title>
<polygon fill="#ffffb3" stroke="#000000" points="6123.5996,-122 5936.4004,-122 5936.4004,-86 6123.5996,-86 6123.5996,-122"/>
<text text-anchor="middle" x="6030" y="-99.8" font-family="Times,serif" font-size="14.00" fill="#000000">BindAdministratorComponent</text>
</g>
<!-- BindAdministratorComponent&#45;&gt;AppModule -->
<g id="edge4" class="edge">
<title>BindAdministratorComponent&#45;&gt;AppModule</title>
<path fill="none" stroke="#000000" d="M6030,-122.2921C6030,-144.2057 6030,-178 6030,-178 6030,-178 3702.7954,-178 3702.7954,-178"/>
<polygon fill="#000000" stroke="#000000" points="3702.7954,-174.5001 3692.7954,-178 3702.7954,-181.5001 3702.7954,-174.5001"/>
</g>
<!-- ContentComponent -->
<g id="node5" class="node">
<title>ContentComponent</title>
<polygon fill="#ffffb3" stroke="#000000" points="5918.6652,-122 5793.3348,-122 5793.3348,-86 5918.6652,-86 5918.6652,-122"/>
<text text-anchor="middle" x="5856" y="-99.8" font-family="Times,serif" font-size="14.00" fill="#000000">ContentComponent</text>
</g>
<!-- ContentComponent&#45;&gt;AppModule -->
<g id="edge5" class="edge">
<title>ContentComponent&#45;&gt;AppModule</title>
<path fill="none" stroke="#000000" d="M5856,-122.2843C5856,-143.3211 5856,-175 5856,-175 5856,-175 3703.0789,-175 3703.0789,-175"/>
<polygon fill="#000000" stroke="#000000" points="3703.0789,-171.5001 3693.0789,-175 3703.0788,-178.5001 3703.0789,-171.5001"/>
</g>
<!-- ControlPanelComponent -->
<g id="node6" class="node">
<title>ControlPanelComponent</title>
<polygon fill="#ffffb3" stroke="#000000" points="5775.7133,-122 5620.2867,-122 5620.2867,-86 5775.7133,-86 5775.7133,-122"/>
<text text-anchor="middle" x="5698" y="-99.8" font-family="Times,serif" font-size="14.00" fill="#000000">ControlPanelComponent</text>
</g>
<!-- ControlPanelComponent&#45;&gt;AppModule -->
<g id="edge6" class="edge">
<title>ControlPanelComponent&#45;&gt;AppModule</title>
<path fill="none" stroke="#000000" d="M5698,-122.1289C5698,-142.5724 5698,-173 5698,-173 5698,-173 3702.8172,-173 3702.8172,-173"/>
<polygon fill="#000000" stroke="#000000" points="3702.8172,-169.5001 3692.8172,-173 3702.8172,-176.5001 3702.8172,-169.5001"/>
</g>
<!-- CreateAdministratorComponent -->
<g id="node7" class="node">
<title>CreateAdministratorComponent</title>
<polygon fill="#ffffb3" stroke="#000000" points="5602.4044,-122 5405.5956,-122 5405.5956,-86 5602.4044,-86 5602.4044,-122"/>
<text text-anchor="middle" x="5504" y="-99.8" font-family="Times,serif" font-size="14.00" fill="#000000">CreateAdministratorComponent</text>
</g>
<!-- CreateAdministratorComponent&#45;&gt;AppModule -->
<g id="edge7" class="edge">
<title>CreateAdministratorComponent&#45;&gt;AppModule</title>
<path fill="none" stroke="#000000" d="M5504,-122.308C5504,-142.1455 5504,-171 5504,-171 5504,-171 3702.7412,-171 3702.7412,-171"/>
<polygon fill="#000000" stroke="#000000" points="3702.7413,-167.5001 3692.7412,-171 3702.7412,-174.5001 3702.7413,-167.5001"/>
</g>
<!-- FooterComponent -->
<g id="node8" class="node">
<title>FooterComponent</title>
<polygon fill="#ffffb3" stroke="#000000" points="5387.8809,-122 5270.1191,-122 5270.1191,-86 5387.8809,-86 5387.8809,-122"/>
<text text-anchor="middle" x="5329" y="-99.8" font-family="Times,serif" font-size="14.00" fill="#000000">FooterComponent</text>
</g>
<!-- FooterComponent&#45;&gt;AppModule -->
<g id="edge8" class="edge">
<title>FooterComponent&#45;&gt;AppModule</title>
<path fill="none" stroke="#000000" d="M5329,-122.1686C5329,-141.0898 5329,-168 5329,-168 5329,-168 3702.8975,-168 3702.8975,-168"/>
<polygon fill="#000000" stroke="#000000" points="3702.8976,-164.5001 3692.8975,-168 3702.8975,-171.5001 3702.8976,-164.5001"/>
</g>
<!-- HomePageContentComponent -->
<g id="node9" class="node">
<title>HomePageContentComponent</title>
<polygon fill="#ffffb3" stroke="#000000" points="5252.5884,-122 5065.4116,-122 5065.4116,-86 5252.5884,-86 5252.5884,-122"/>
<text text-anchor="middle" x="5159" y="-99.8" font-family="Times,serif" font-size="14.00" fill="#000000">HomePageContentComponent</text>
</g>
<!-- HomePageContentComponent&#45;&gt;AppModule -->
<g id="edge9" class="edge">
<title>HomePageContentComponent&#45;&gt;AppModule</title>
<path fill="none" stroke="#000000" d="M5159,-122.2667C5159,-140.5552 5159,-166 5159,-166 5159,-166 3702.9065,-166 3702.9065,-166"/>
<polygon fill="#000000" stroke="#000000" points="3702.9065,-162.5001 3692.9065,-166 3702.9064,-169.5001 3702.9065,-162.5001"/>
</g>
<!-- LoginComponent -->
<g id="node10" class="node">
<title>LoginComponent</title>
<polygon fill="#ffffb3" stroke="#000000" points="5047.2758,-122 4932.7242,-122 4932.7242,-86 5047.2758,-86 5047.2758,-122"/>
<text text-anchor="middle" x="4990" y="-99.8" font-family="Times,serif" font-size="14.00" fill="#000000">LoginComponent</text>
</g>
<!-- LoginComponent&#45;&gt;AppModule -->
<g id="edge10" class="edge">
<title>LoginComponent&#45;&gt;AppModule</title>
<path fill="none" stroke="#000000" d="M4990,-122.0225C4990,-139.3734 4990,-163 4990,-163 4990,-163 3702.9128,-163 3702.9128,-163"/>
<polygon fill="#000000" stroke="#000000" points="3702.9128,-159.5001 3692.9128,-163 3702.9127,-166.5001 3702.9128,-159.5001"/>
</g>
<!-- MenuFunctionalityComponent -->
<g id="node11" class="node">
<title>MenuFunctionalityComponent</title>
<polygon fill="#ffffb3" stroke="#000000" points="4914.1567,-122 4725.8433,-122 4725.8433,-86 4914.1567,-86 4914.1567,-122"/>
<text text-anchor="middle" x="4820" y="-99.8" font-family="Times,serif" font-size="14.00" fill="#000000">MenuFunctionalityComponent</text>
</g>
<!-- MenuFunctionalityComponent&#45;&gt;AppModule -->
<g id="edge11" class="edge">
<title>MenuFunctionalityComponent&#45;&gt;AppModule</title>
<path fill="none" stroke="#000000" d="M4820,-122.0352C4820,-138.7344 4820,-161 4820,-161 4820,-161 3702.95,-161 3702.95,-161"/>
<polygon fill="#000000" stroke="#000000" points="3702.95,-157.5001 3692.95,-161 3702.95,-164.5001 3702.95,-157.5001"/>
</g>
<!-- MenubarComponent -->
<g id="node12" class="node">
<title>MenubarComponent</title>
<polygon fill="#ffffb3" stroke="#000000" points="4707.8669,-122 4576.1331,-122 4576.1331,-86 4707.8669,-86 4707.8669,-122"/>
<text text-anchor="middle" x="4642" y="-99.8" font-family="Times,serif" font-size="14.00" fill="#000000">MenubarComponent</text>
</g>
<!-- MenubarComponent&#45;&gt;AppModule -->
<g id="edge12" class="edge">
<title>MenubarComponent&#45;&gt;AppModule</title>
<path fill="none" stroke="#000000" d="M4642,-122.0091C4642,-138.0494 4642,-159 4642,-159 4642,-159 3702.9491,-159 3702.9491,-159"/>
<polygon fill="#000000" stroke="#000000" points="3702.9491,-155.5001 3692.9491,-159 3702.949,-162.5001 3702.9491,-155.5001"/>
</g>
<!-- ModifyOrganizationTrackingAreaContentComponent -->
<g id="node13" class="node">
<title>ModifyOrganizationTrackingAreaContentComponent</title>
<polygon fill="#ffffb3" stroke="#000000" points="4558.4732,-122 4239.5268,-122 4239.5268,-86 4558.4732,-86 4558.4732,-122"/>
<text text-anchor="middle" x="4399" y="-99.8" font-family="Times,serif" font-size="14.00" fill="#000000">ModifyOrganizationTrackingAreaContentComponent</text>
</g>
<!-- ModifyOrganizationTrackingAreaContentComponent&#45;&gt;AppModule -->
<g id="edge13" class="edge">
<title>ModifyOrganizationTrackingAreaContentComponent&#45;&gt;AppModule</title>
<path fill="none" stroke="#000000" d="M4399,-122.1871C4399,-137.1824 4399,-156 4399,-156 4399,-156 3702.8185,-156 3702.8185,-156"/>
<polygon fill="#000000" stroke="#000000" points="3702.8186,-152.5001 3692.8185,-156 3702.8185,-159.5001 3702.8186,-152.5001"/>
</g>
<!-- ModifyPlaceTrackingAreaContentComponent -->
<g id="node14" class="node">
<title>ModifyPlaceTrackingAreaContentComponent</title>
<polygon fill="#ffffb3" stroke="#000000" points="4221.7072,-122 3946.2928,-122 3946.2928,-86 4221.7072,-86 4221.7072,-122"/>
<text text-anchor="middle" x="4084" y="-99.8" font-family="Times,serif" font-size="14.00" fill="#000000">ModifyPlaceTrackingAreaContentComponent</text>
</g>
<!-- ModifyPlaceTrackingAreaContentComponent&#45;&gt;AppModule -->
<g id="edge14" class="edge">
<title>ModifyPlaceTrackingAreaContentComponent&#45;&gt;AppModule</title>
<path fill="none" stroke="#000000" d="M4084,-122.0511C4084,-136.373 4084,-154 4084,-154 4084,-154 3702.9113,-154 3702.9113,-154"/>
<polygon fill="#000000" stroke="#000000" points="3702.9113,-150.5001 3692.9113,-154 3702.9113,-157.5001 3702.9113,-150.5001"/>
</g>
<!-- OrganizationInformationContentComponent -->
<g id="node15" class="node">
<title>OrganizationInformationContentComponent</title>
<polygon fill="#ffffb3" stroke="#000000" points="3927.6161,-122 3662.3839,-122 3662.3839,-86 3927.6161,-86 3927.6161,-122"/>
<text text-anchor="middle" x="3795" y="-99.8" font-family="Times,serif" font-size="14.00" fill="#000000">OrganizationInformationContentComponent</text>
</g>
<!-- OrganizationInformationContentComponent&#45;&gt;AppModule -->
<g id="edge15" class="edge">
<title>OrganizationInformationContentComponent&#45;&gt;AppModule</title>
<path fill="none" stroke="#000000" d="M3677.5102,-122.1061C3677.5102,-122.1061 3677.5102,-140.991 3677.5102,-140.991"/>
<polygon fill="#000000" stroke="#000000" points="3674.0102,-140.9909 3677.5102,-150.991 3681.0102,-140.991 3674.0102,-140.9909"/>
</g>
<!-- OrganizationManagementContentComponent -->
<g id="node16" class="node">
<title>OrganizationManagementContentComponent</title>
<polygon fill="#ffffb3" stroke="#000000" points="3643.8319,-122 3372.1681,-122 3372.1681,-86 3643.8319,-86 3643.8319,-122"/>
<text text-anchor="middle" x="3508" y="-99.8" font-family="Times,serif" font-size="14.00" fill="#000000">OrganizationManagementContentComponent</text>
</g>
<!-- OrganizationManagementContentComponent&#45;&gt;AppModule -->
<g id="edge16" class="edge">
<title>OrganizationManagementContentComponent&#45;&gt;AppModule</title>
<path fill="none" stroke="#000000" d="M3626.5439,-122.1061C3626.5439,-122.1061 3626.5439,-140.991 3626.5439,-140.991"/>
<polygon fill="#000000" stroke="#000000" points="3623.0439,-140.9909 3626.5439,-150.991 3630.0439,-140.991 3623.0439,-140.9909"/>
</g>
<!-- OrganizationPresenceNumberComponent -->
<g id="node17" class="node">
<title>OrganizationPresenceNumberComponent</title>
<polygon fill="#ffffb3" stroke="#000000" points="3354.0338,-122 3103.9662,-122 3103.9662,-86 3354.0338,-86 3354.0338,-122"/>
<text text-anchor="middle" x="3229" y="-99.8" font-family="Times,serif" font-size="14.00" fill="#000000">OrganizationPresenceNumberComponent</text>
</g>
<!-- OrganizationPresenceNumberComponent&#45;&gt;AppModule -->
<g id="edge17" class="edge">
<title>OrganizationPresenceNumberComponent&#45;&gt;AppModule</title>
<path fill="none" stroke="#000000" d="M3229,-122.0511C3229,-136.373 3229,-154 3229,-154 3229,-154 3598.9942,-154 3598.9942,-154"/>
<polygon fill="#000000" stroke="#000000" points="3598.9943,-157.5001 3608.9942,-154 3598.9942,-150.5001 3598.9943,-157.5001"/>
</g>
<!-- OsmMapContentComponent -->
<g id="node18" class="node">
<title>OsmMapContentComponent</title>
<polygon fill="#ffffb3" stroke="#000000" points="3085.766,-122 2908.234,-122 2908.234,-86 3085.766,-86 3085.766,-122"/>
<text text-anchor="middle" x="2997" y="-99.8" font-family="Times,serif" font-size="14.00" fill="#000000">OsmMapContentComponent</text>
</g>
<!-- OsmMapContentComponent&#45;&gt;AppModule -->
<g id="edge18" class="edge">
<title>OsmMapContentComponent&#45;&gt;AppModule</title>
<path fill="none" stroke="#000000" d="M2997,-122.1871C2997,-137.1824 2997,-156 2997,-156 2997,-156 3599.0945,-156 3599.0945,-156"/>
<polygon fill="#000000" stroke="#000000" points="3599.0945,-159.5001 3609.0945,-156 3599.0944,-152.5001 3599.0945,-159.5001"/>
</g>
<!-- PlaceManagementContentComponent -->
<g id="node19" class="node">
<title>PlaceManagementContentComponent</title>
<polygon fill="#ffffb3" stroke="#000000" points="2890.566,-122 2661.434,-122 2661.434,-86 2890.566,-86 2890.566,-122"/>
<text text-anchor="middle" x="2776" y="-99.8" font-family="Times,serif" font-size="14.00" fill="#000000">PlaceManagementContentComponent</text>
</g>
<!-- PlaceManagementContentComponent&#45;&gt;AppModule -->
<g id="edge19" class="edge">
<title>PlaceManagementContentComponent&#45;&gt;AppModule</title>
<path fill="none" stroke="#000000" d="M2776,-122.0091C2776,-138.0494 2776,-159 2776,-159 2776,-159 3599.0917,-159 3599.0917,-159"/>
<polygon fill="#000000" stroke="#000000" points="3599.0918,-162.5001 3609.0917,-159 3599.0917,-155.5001 3599.0918,-162.5001"/>
</g>
<!-- PlacePresenceNumberComponent -->
<g id="node20" class="node">
<title>PlacePresenceNumberComponent</title>
<polygon fill="#ffffb3" stroke="#000000" points="2643.7682,-122 2436.2318,-122 2436.2318,-86 2643.7682,-86 2643.7682,-122"/>
<text text-anchor="middle" x="2540" y="-99.8" font-family="Times,serif" font-size="14.00" fill="#000000">PlacePresenceNumberComponent</text>
</g>
<!-- PlacePresenceNumberComponent&#45;&gt;AppModule -->
<g id="edge20" class="edge">
<title>PlacePresenceNumberComponent&#45;&gt;AppModule</title>
<path fill="none" stroke="#000000" d="M2540,-122.0352C2540,-138.7344 2540,-161 2540,-161 2540,-161 3599.1403,-161 3599.1403,-161"/>
<polygon fill="#000000" stroke="#000000" points="3599.1403,-164.5001 3609.1403,-161 3599.1402,-157.5001 3599.1403,-164.5001"/>
</g>
<!-- ResetPasswordComponent -->
<g id="node21" class="node">
<title>ResetPasswordComponent</title>
<polygon fill="#ffffb3" stroke="#000000" points="2418.087,-122 2251.913,-122 2251.913,-86 2418.087,-86 2418.087,-122"/>
<text text-anchor="middle" x="2335" y="-99.8" font-family="Times,serif" font-size="14.00" fill="#000000">ResetPasswordComponent</text>
</g>
<!-- ResetPasswordComponent&#45;&gt;AppModule -->
<g id="edge21" class="edge">
<title>ResetPasswordComponent&#45;&gt;AppModule</title>
<path fill="none" stroke="#000000" d="M2335,-122.0225C2335,-139.3734 2335,-163 2335,-163 2335,-163 3599.0737,-163 3599.0737,-163"/>
<polygon fill="#000000" stroke="#000000" points="3599.0738,-166.5001 3609.0737,-163 3599.0737,-159.5001 3599.0738,-166.5001"/>
</g>
<!-- TimeReportComponent -->
<g id="node22" class="node">
<title>TimeReportComponent</title>
<polygon fill="#ffffb3" stroke="#000000" points="2233.4832,-122 2084.5168,-122 2084.5168,-86 2233.4832,-86 2233.4832,-122"/>
<text text-anchor="middle" x="2159" y="-99.8" font-family="Times,serif" font-size="14.00" fill="#000000">TimeReportComponent</text>
</g>
<!-- TimeReportComponent&#45;&gt;AppModule -->
<g id="edge22" class="edge">
<title>TimeReportComponent&#45;&gt;AppModule</title>
<path fill="none" stroke="#000000" d="M2159,-122.2667C2159,-140.5552 2159,-166 2159,-166 2159,-166 3599.1453,-166 3599.1453,-166"/>
<polygon fill="#000000" stroke="#000000" points="3599.1453,-169.5001 3609.1453,-166 3599.1453,-162.5001 3599.1453,-169.5001"/>
</g>
<!-- ViewOrganizationTrackingAreaContentComponent -->
<g id="node23" class="node">
<title>ViewOrganizationTrackingAreaContentComponent</title>
<polygon fill="#ffffb3" stroke="#000000" points="2066.2955,-122 1759.7045,-122 1759.7045,-86 2066.2955,-86 2066.2955,-122"/>
<text text-anchor="middle" x="1913" y="-99.8" font-family="Times,serif" font-size="14.00" fill="#000000">ViewOrganizationTrackingAreaContentComponent</text>
</g>
<!-- ViewOrganizationTrackingAreaContentComponent&#45;&gt;AppModule -->
<g id="edge23" class="edge">
<title>ViewOrganizationTrackingAreaContentComponent&#45;&gt;AppModule</title>
<path fill="none" stroke="#000000" d="M1913,-122.1686C1913,-141.0898 1913,-168 1913,-168 1913,-168 3599.3267,-168 3599.3267,-168"/>
<polygon fill="#000000" stroke="#000000" points="3599.3267,-171.5001 3609.3267,-168 3599.3266,-164.5001 3599.3267,-171.5001"/>
</g>
<!-- AppComponent  -->
<g id="node26" class="node">
<title>AppComponent </title>
<polygon fill="#80b1d3" stroke="#000000" points="3705.439,-252 3596.561,-252 3596.561,-216 3705.439,-216 3705.439,-252"/>
<text text-anchor="middle" x="3651" y="-229.8" font-family="Times,serif" font-size="14.00" fill="#000000">AppComponent </text>
</g>
<!-- AppModule&#45;&gt;AppComponent  -->
<g id="edge25" class="edge">
<title>AppModule&#45;&gt;AppComponent </title>
<path fill="none" stroke="#000000" stroke-dasharray="1,5" d="M3651,-187.1061C3651,-187.1061 3651,-205.991 3651,-205.991"/>
<polygon fill="#000000" stroke="#000000" points="3647.5001,-205.9909 3651,-215.991 3654.5001,-205.991 3647.5001,-205.9909"/>
</g>
<!-- AppRoutingModule -->
<g id="node25" class="node">
<title>AppRoutingModule</title>
<polygon fill="#8dd3c7" stroke="#000000" points="1736.2744,-122 1733.2744,-126 1712.2744,-126 1709.2744,-122 1607.7256,-122 1607.7256,-86 1736.2744,-86 1736.2744,-122"/>
<text text-anchor="middle" x="1672" y="-99.8" font-family="Times,serif" font-size="14.00" fill="#000000">AppRoutingModule</text>
</g>
<!-- AppRoutingModule&#45;&gt;AppModule -->
<g id="edge24" class="edge">
<title>AppRoutingModule&#45;&gt;AppModule</title>
<path fill="none" stroke="#000000" d="M1672,-122.308C1672,-142.1455 1672,-171 1672,-171 1672,-171 3599.2092,-171 3599.2092,-171"/>
<polygon fill="#000000" stroke="#000000" points="3599.2092,-174.5001 3609.2092,-171 3599.2091,-167.5001 3599.2092,-174.5001"/>
</g>
<!-- AccessDataService -->
<g id="node27" class="node">
<title>AccessDataService</title>
<ellipse fill="#fdb462" stroke="#000000" cx="1498" cy="-104" rx="85.6261" ry="18"/>
<text text-anchor="middle" x="1498" y="-99.8" font-family="Times,serif" font-size="14.00" fill="#000000">AccessDataService</text>
</g>
<!-- AccessDataService&#45;&gt;AppModule -->
<g id="edge26" class="edge">
<title>AccessDataService&#45;&gt;AppModule</title>
<path fill="none" stroke="#000000" d="M1498,-122.1289C1498,-142.5724 1498,-173 1498,-173 1498,-173 3598.9584,-173 3598.9584,-173"/>
<polygon fill="#000000" stroke="#000000" points="3598.9584,-176.5001 3608.9584,-173 3598.9583,-169.5001 3598.9584,-176.5001"/>
</g>
<!-- AdministratorOrganizationDataService -->
<g id="node28" class="node">
<title>AdministratorOrganizationDataService</title>
<ellipse fill="#fdb462" stroke="#000000" cx="1232" cy="-104" rx="162.6142" ry="18"/>
<text text-anchor="middle" x="1232" y="-99.8" font-family="Times,serif" font-size="14.00" fill="#000000">AdministratorOrganizationDataService</text>
</g>
<!-- AdministratorOrganizationDataService&#45;&gt;AppModule -->
<g id="edge27" class="edge">
<title>AdministratorOrganizationDataService&#45;&gt;AppModule</title>
<path fill="none" stroke="#000000" d="M1232,-122.2843C1232,-143.3211 1232,-175 1232,-175 1232,-175 3599.2686,-175 3599.2686,-175"/>
<polygon fill="#000000" stroke="#000000" points="3599.2686,-178.5001 3609.2686,-175 3599.2685,-171.5001 3599.2686,-178.5001"/>
</g>
<!-- AdministratorPermissionDataService -->
<g id="node29" class="node">
<title>AdministratorPermissionDataService</title>
<ellipse fill="#fdb462" stroke="#000000" cx="896" cy="-104" rx="155.1266" ry="18"/>
<text text-anchor="middle" x="896" y="-99.8" font-family="Times,serif" font-size="14.00" fill="#000000">AdministratorPermissionDataService</text>
</g>
<!-- AdministratorPermissionDataService&#45;&gt;AppModule -->
<g id="edge28" class="edge">
<title>AdministratorPermissionDataService&#45;&gt;AppModule</title>
<path fill="none" stroke="#000000" d="M896,-122.2921C896,-144.2057 896,-178 896,-178 896,-178 3599.1015,-178 3599.1015,-178"/>
<polygon fill="#000000" stroke="#000000" points="3599.1015,-181.5001 3609.1015,-178 3599.1014,-174.5001 3599.1015,-181.5001"/>
</g>
<!-- AuthenticationService -->
<g id="node30" class="node">
<title>AuthenticationService</title>
<ellipse fill="#fdb462" stroke="#000000" cx="625" cy="-104" rx="97.2683" ry="18"/>
<text text-anchor="middle" x="625" y="-99.8" font-family="Times,serif" font-size="14.00" fill="#000000">AuthenticationService</text>
</g>
<!-- AuthenticationService&#45;&gt;AppModule -->
<g id="edge29" class="edge">
<title>AuthenticationService&#45;&gt;AppModule</title>
<path fill="none" stroke="#000000" d="M625,-122.0109C625,-144.4852 625,-180 625,-180 625,-180 3599.0886,-180 3599.0886,-180"/>
<polygon fill="#000000" stroke="#000000" points="3599.0886,-183.5001 3609.0886,-180 3599.0886,-176.5001 3599.0886,-183.5001"/>
</g>
<!-- OrganizationService -->
<g id="node31" class="node">
<title>OrganizationService</title>
<ellipse fill="#fdb462" stroke="#000000" cx="419" cy="-104" rx="90.3062" ry="18"/>
<text text-anchor="middle" x="419" y="-99.8" font-family="Times,serif" font-size="14.00" fill="#000000">OrganizationService</text>
</g>
<!-- OrganizationService&#45;&gt;AppModule -->
<g id="edge30" class="edge">
<title>OrganizationService&#45;&gt;AppModule</title>
<path fill="none" stroke="#000000" d="M419,-122.3228C419,-145.6602 419,-183 419,-183 419,-183 3599.2505,-183 3599.2505,-183"/>
<polygon fill="#000000" stroke="#000000" points="3599.2506,-186.5001 3609.2505,-183 3599.2505,-179.5001 3599.2506,-186.5001"/>
</g>
<!-- OrganizationTrackingDataService -->
<g id="node32" class="node">
<title>OrganizationTrackingDataService</title>
<ellipse fill="#fdb462" stroke="#000000" cx="167" cy="-104" rx="143.4765" ry="18"/>
<text text-anchor="middle" x="167" y="-99.8" font-family="Times,serif" font-size="14.00" fill="#000000">OrganizationTrackingDataService</text>
</g>
<!-- OrganizationTrackingDataService&#45;&gt;AppModule -->
<g id="edge31" class="edge">
<title>OrganizationTrackingDataService&#45;&gt;AppModule</title>
<path fill="none" stroke="#000000" d="M167,-122.3802C167,-146.2785 167,-185 167,-185 167,-185 3599.1377,-185 3599.1377,-185"/>
<polygon fill="#000000" stroke="#000000" points="3599.1377,-188.5001 3609.1377,-185 3599.1376,-181.5001 3599.1377,-188.5001"/>
</g>
</g>
</svg>
